<?xml version="1.0" encoding="UTF-8" standalone="no"?>
<!-- Created with Inkscape (http://www.inkscape.org/) -->

<svg
   xmlns:dc="http://purl.org/dc/elements/1.1/"
   xmlns:cc="http://creativecommons.org/ns#"
   xmlns:rdf="http://www.w3.org/1999/02/22-rdf-syntax-ns#"
   xmlns:svg="http://www.w3.org/2000/svg"
   xmlns="http://www.w3.org/2000/svg"
   xmlns:sodipodi="http://sodipodi.sourceforge.net/DTD/sodipodi-0.dtd"
   xmlns:inkscape="http://www.inkscape.org/namespaces/inkscape"
   width="151.62041"
   height="60.12484"
   viewBox="0 0 40.116232 15.908031"
   version="1.1"
   id="svg296"
   inkscape:version="0.92.4 (5da689c313, 2019-01-14)"
   sodipodi:docname="Banco-Provincia-Logo.svg">
  <defs
     id="defs290" />
  <sodipodi:namedview
     id="base"
     pagecolor="#ffffff"
     bordercolor="#666666"
     borderopacity="1.0"
     inkscape:pageopacity="0.0"
     inkscape:pageshadow="2"
     inkscape:zoom="2.8"
     inkscape:cx="-69.912062"
     inkscape:cy="67.485962"
     inkscape:document-units="mm"
     inkscape:current-layer="g398"
     showgrid="false"
     units="px"
     fit-margin-left="10"
     fit-margin-right="10"
     fit-margin-bottom="5"
     fit-margin-top="5"
     inkscape:window-width="1920"
     inkscape:window-height="1017"
     inkscape:window-x="-8"
     inkscape:window-y="-8"
     inkscape:window-maximized="1" />
  <metadata
     id="metadata293">
    <rdf:RDF>
      <cc:Work
         rdf:about="">
        <dc:format>image/svg+xml</dc:format>
        <dc:type
           rdf:resource="http://purl.org/dc/dcmitype/StillImage" />
        <dc:title />
      </cc:Work>
    </rdf:RDF>
  </metadata>
  <g
     inkscape:label="Layer 1"
     inkscape:groupmode="layer"
     id="layer1"
     transform="translate(-73.774473,-172.44033)">
    <g
       id="g398"
       transform="translate(39.404018,14.174107)">
      <g
         id="g193"
         transform="translate(0,0.01852091)">
        <g
           id="g182"
           transform="matrix(0.35277777,0,0,-0.35277777,44.05417,164.99949)">
          <path
             d="M 0,0 C 2.19,0 3.966,1.792 3.966,3.985 3.966,6.175 2.19,7.952 0,7.952 h -1.444 c -0.398,0 -0.881,-0.346 -0.881,-0.885 V 0.859 C -2.325,0.461 -1.958,0 -1.395,0 Z"
             style="fill:#87bc0b;fill-opacity:1;fill-rule:nonzero;stroke:none"
             id="path184"
             inkscape:connector-curvature="0" />
        </g>
        <g
           id="g186"
           transform="matrix(0.35277777,0,0,-0.35277777,48.208869,164.75438)">
          <path
             d="m 0,0 c -0.035,0.013 -0.103,0.024 -0.153,-0.099 -3.532,-8.569 -13.306,-7.219 -13.306,-7.219 -0.399,0.024 -0.69,-0.143 -0.71,-0.521 v -6.439 c 0.004,-0.413 -0.259,-0.498 -0.518,-0.533 -6.276,-0.219 -7.889,3.974 -7.916,6.867 -0.006,0.791 -0.042,1.357 -0.042,1.453 v 16.68 c 0,0.39 0.297,0.533 0.552,0.533 h 3.367 c 0.969,-0.006 1.213,0.092 1.763,0.61 l 2.735,2.967 c 0.301,0.373 -0.188,0.342 -0.188,0.342 h -14.885 c -2.005,0 -2.426,-1.411 -2.426,-2.248 V -7.846 c 0.023,-2.145 -0.09,-15.001 14.704,-15.001 H -2.95 c 2.264,0 3.027,1.522 3.027,2.801 v 19.878 c 0,0 0.006,0.141 -0.077,0.168"
             style="fill:#87bc0b;fill-opacity:1;fill-rule:nonzero;stroke:none"
             id="path188"
             inkscape:connector-curvature="0" />
        </g>
      </g>
      <g
         id="g187"
         transform="translate(0,-2.1161613)">
        <g
           id="g190"
           transform="matrix(0.35277777,0,0,-0.35277777,52.116659,167.0649)">
          <path
             d="m 0,0 h 1.819 c 0.984,0 1.524,0.523 1.524,1.409 0,0.836 -0.54,1.377 -1.524,1.377 H 0 c -0.066,0 -0.099,-0.032 -0.099,-0.099 V 0.098 C -0.099,0.032 -0.066,0 0,0 Z m 1.688,4.637 c 0.918,0 1.475,0.477 1.475,1.311 0,0.837 -0.541,1.296 -1.475,1.296 H 0 c -0.066,0 -0.099,-0.033 -0.099,-0.099 V 4.736 C -0.099,4.671 -0.066,4.637 0,4.637 Z m -4.196,3.492 c 0,0.639 0.394,1.065 1.049,1.065 h 3.458 c 2.426,0 3.557,-1.196 3.557,-2.967 0,-1.196 -0.541,-1.966 -1.295,-2.376 V 3.819 C 4.998,3.524 5.752,2.621 5.752,1.294 c 0,-2.196 -1.458,-3.245 -3.868,-3.245 h -3.343 c -0.655,0 -1.049,0.411 -1.049,1.049 z"
             style="fill:#515457;fill-opacity:1;fill-rule:nonzero;stroke:none"
             id="path192"
             inkscape:connector-curvature="0" />
        </g>
        <g
           id="g194"
           transform="matrix(0.35277777,0,0,-0.35277777,56.175156,166.82229)">
          <path
             d="m 0,0 v 0.541 c 0,0.065 -0.033,0.098 -0.098,0.098 h -1.115 c -0.967,0 -1.409,-0.295 -1.409,-0.901 0,-0.557 0.393,-0.836 1.147,-0.836 C -0.508,-1.098 0,-0.737 0,0 Z m 2.754,-1.671 c 0,-0.607 -0.508,-1.066 -1.148,-1.066 -0.393,0 -0.721,0.148 -0.934,0.443 L 0.475,-2.016 H 0.459 c -0.409,-0.508 -1.262,-0.802 -2.245,-0.802 -2.033,0 -3.016,0.917 -3.016,2.425 0,1.754 1.311,2.557 3.278,2.557 h 1.426 C -0.033,2.164 0,2.197 0,2.262 v 0.082 c 0,0.737 -0.524,1.18 -1.622,1.18 -0.492,0 -0.984,-0.114 -1.278,-0.229 -0.197,-0.066 -0.378,-0.116 -0.541,-0.116 -0.541,0 -0.918,0.362 -0.918,0.919 0,0.344 0.163,0.704 0.59,0.917 0.524,0.263 1.327,0.46 2.425,0.46 2.393,0 3.54,-1.214 3.54,-3.197 V 0.115 c 0,-0.377 0.033,-0.557 0.148,-0.754 L 2.557,-1 c 0.131,-0.213 0.197,-0.442 0.197,-0.671"
             style="fill:#515457;fill-opacity:1;fill-rule:nonzero;stroke:none"
             id="path196"
             inkscape:connector-curvature="0" />
        </g>
        <g
           id="g198"
           transform="matrix(0.35277777,0,0,-0.35277777,59.193171,167.35979)">
          <path
             d="m 0,0 v 3.606 c 0,0.868 -0.426,1.442 -1.245,1.442 -0.82,0 -1.23,-0.574 -1.23,-1.442 V 0 c 0,-0.754 -0.491,-1.214 -1.147,-1.214 -0.672,0 -1.148,0.46 -1.148,1.214 v 5.703 c 0,0.754 0.476,1.212 1.148,1.212 0.541,0 0.967,-0.311 1.098,-0.834 h 0.017 c 0.393,0.507 1.081,0.917 2.098,0.917 1.754,0 2.704,-1.23 2.704,-2.95 V 0 C 2.295,-0.754 1.819,-1.214 1.147,-1.214 0.492,-1.214 0,-0.754 0,0"
             style="fill:#515457;fill-opacity:1;fill-rule:nonzero;stroke:none"
             id="path200"
             inkscape:connector-curvature="0" />
        </g>
        <g
           id="g202"
           transform="matrix(0.35277777,0,0,-0.35277777,60.51718,167.01869)">
          <path
             d="m 0,0 c -0.164,0.475 -0.263,1.049 -0.263,1.884 0,0.836 0.099,1.41 0.263,1.885 0.475,1.475 1.704,2.262 3.376,2.262 1.098,0 1.983,-0.361 2.491,-0.869 0.327,-0.327 0.459,-0.59 0.459,-0.917 0,-0.574 -0.425,-0.984 -1,-0.984 -0.344,0 -0.607,0.181 -0.934,0.475 C 4.13,3.982 3.835,4.097 3.408,4.097 2.802,4.097 2.393,3.819 2.212,3.228 2.114,2.917 2.065,2.54 2.065,1.884 c 0,-0.655 0.049,-1.033 0.147,-1.343 0.181,-0.591 0.59,-0.87 1.196,-0.87 0.427,0 0.722,0.115 0.984,0.361 0.327,0.295 0.59,0.475 0.934,0.475 0.575,0 1,-0.409 1,-0.983 0,-0.328 -0.132,-0.589 -0.459,-0.917 C 5.359,-1.901 4.474,-2.262 3.376,-2.262 1.704,-2.262 0.475,-1.476 0,0"
             style="fill:#515457;fill-opacity:1;fill-rule:nonzero;stroke:none"
             id="path204"
             inkscape:connector-curvature="0" />
        </g>
        <g
           id="g206"
           transform="matrix(0.35277777,0,0,-0.35277777,64.778174,166.82229)">
          <path
             d="M 0,0 C 0.115,0.344 0.147,0.787 0.147,1.327 0.147,1.869 0.115,2.311 0,2.656 -0.18,3.212 -0.59,3.541 -1.229,3.541 -1.868,3.541 -2.278,3.212 -2.458,2.656 -2.573,2.311 -2.606,1.869 -2.606,1.327 c 0,-0.54 0.033,-0.983 0.148,-1.327 0.18,-0.557 0.59,-0.886 1.229,-0.886 0.639,0 1.049,0.329 1.229,0.886 z m -4.671,-0.541 c -0.181,0.574 -0.262,1.099 -0.262,1.868 0,0.771 0.081,1.295 0.262,1.869 0.475,1.459 1.704,2.279 3.442,2.279 1.737,0 2.966,-0.82 3.441,-2.279 C 2.393,2.622 2.474,2.098 2.474,1.327 2.474,0.558 2.393,0.033 2.212,-0.541 1.737,-1.999 0.508,-2.818 -1.229,-2.818 c -1.738,0 -2.967,0.819 -3.442,2.277"
             style="fill:#515457;fill-opacity:1;fill-rule:nonzero;stroke:none"
             id="path208"
             inkscape:connector-curvature="0" />
        </g>
        <g
           id="g210"
           transform="matrix(0.35277777,0,0,-0.35277777,53.426876,170.03)">
          <path
             d="m 0,0 c 0,1.213 -0.803,1.966 -2.18,1.966 h -2.491 c -0.065,0 -0.098,-0.032 -0.098,-0.098 v -3.737 c 0,-0.064 0.033,-0.098 0.098,-0.098 H -2.18 C -0.803,-1.967 0,-1.213 0,0 Z m -6.228,2.671 c 0,0.394 0.246,0.656 0.656,0.656 h 3.441 c 2.229,0 3.574,-1.345 3.574,-3.327 0,-1.984 -1.345,-3.327 -3.574,-3.327 h -2.54 c -0.065,0 -0.098,-0.034 -0.098,-0.099 v -3.687 c 0,-0.491 -0.295,-0.786 -0.721,-0.786 -0.443,0 -0.738,0.295 -0.738,0.786 z"
             style="fill:#515457;fill-opacity:1;fill-rule:nonzero;stroke:none"
             id="path212"
             inkscape:connector-curvature="0" />
        </g>
        <g
           id="g214"
           transform="matrix(0.35277777,0,0,-0.35277777,54.323073,172.55691)">
          <path
             d="m 0,0 v 6.54 c 0,0.459 0.295,0.737 0.688,0.737 0.393,0 0.688,-0.278 0.688,-0.737 V 6.179 H 1.393 C 1.721,6.884 2.442,7.376 3.409,7.376 3.949,7.376 4.31,7.245 4.572,7.097 4.851,6.949 4.966,6.737 4.966,6.507 4.966,6.114 4.687,5.819 4.277,5.819 4.179,5.819 4.048,5.852 3.933,5.9 3.638,6.015 3.36,6.097 3.032,6.097 1.852,6.097 1.376,5.115 1.376,3.802 V 0 C 1.376,-0.457 1.081,-0.736 0.688,-0.736 0.295,-0.736 0,-0.457 0,0"
             style="fill:#515457;fill-opacity:1;fill-rule:nonzero;stroke:none"
             id="path216"
             inkscape:connector-curvature="0" />
        </g>
        <g
           id="g218"
           transform="matrix(0.35277777,0,0,-0.35277777,58.069573,171.9672)">
          <path
             d="M 0,0 C 0.131,0.427 0.18,0.853 0.18,1.606 0.18,2.36 0.131,2.77 0,3.197 -0.262,3.983 -0.901,4.426 -1.77,4.426 -2.639,4.426 -3.278,3.983 -3.54,3.197 -3.671,2.77 -3.721,2.36 -3.721,1.606 c 0,-0.753 0.05,-1.179 0.181,-1.606 0.262,-0.787 0.901,-1.228 1.77,-1.228 0.869,0 1.508,0.441 1.77,1.228 z m -4.867,-0.393 c -0.181,0.54 -0.263,1.082 -0.263,1.999 0,0.902 0.082,1.443 0.263,1.984 0.426,1.344 1.573,2.114 3.097,2.114 1.525,0 2.671,-0.77 3.097,-2.114 C 1.508,3.049 1.59,2.508 1.59,1.606 1.59,0.689 1.508,0.147 1.327,-0.393 0.901,-1.72 -0.245,-2.506 -1.77,-2.506 c -1.524,0 -2.671,0.786 -3.097,2.113"
             style="fill:#515457;fill-opacity:1;fill-rule:nonzero;stroke:none"
             id="path220"
             inkscape:connector-curvature="0" />
        </g>
        <g
           id="g222"
           transform="matrix(0.35277777,0,0,-0.35277777,59.763684,172.5163)">
          <path
             d="m 0,0 -2.377,6.162 c -0.049,0.131 -0.066,0.23 -0.066,0.345 0,0.36 0.263,0.655 0.673,0.655 0.327,0 0.541,-0.197 0.655,-0.492 L 0.917,1.212 H 0.95 L 2.933,6.67 c 0.115,0.295 0.329,0.492 0.656,0.492 0.41,0 0.672,-0.295 0.672,-0.655 0,-0.115 -0.017,-0.214 -0.066,-0.345 L 1.802,0 C 1.557,-0.64 1.344,-0.852 0.9,-0.852 0.458,-0.852 0.245,-0.64 0,0"
             style="fill:#515457;fill-opacity:1;fill-rule:nonzero;stroke:none"
             id="path224"
             inkscape:connector-curvature="0" />
        </g>
        <g
           id="g226"
           transform="matrix(0.35277777,0,0,-0.35277777,61.717473,170.24971)">
          <path
             d="M 0,0 C 0,0.459 0.296,0.737 0.689,0.737 1.082,0.737 1.377,0.459 1.377,0 V -6.54 C 1.377,-6.998 1.082,-7.276 0.689,-7.276 0.296,-7.276 0,-6.998 0,-6.54 Z m -0.214,3.129 c 0,0.509 0.411,0.903 0.903,0.903 0.491,0 0.901,-0.394 0.901,-0.903 0,-0.491 -0.41,-0.9 -0.901,-0.9 -0.492,0 -0.903,0.409 -0.903,0.9"
             style="fill:#515457;fill-opacity:1;fill-rule:nonzero;stroke:none"
             id="path228"
             inkscape:connector-curvature="0" />
        </g>
        <g
           id="g230"
           transform="matrix(0.35277777,0,0,-0.35277777,62.925878,170.24971)">
          <path
             d="M 0,0 C 0,0.459 0.295,0.737 0.689,0.737 1.082,0.737 1.376,0.459 1.376,0 v -0.23 h 0.016 c 0.378,0.607 1.132,1.066 2.197,1.066 1.705,0 2.721,-1.165 2.721,-2.951 V -6.54 c 0,-0.458 -0.295,-0.736 -0.688,-0.736 -0.394,0 -0.689,0.278 -0.689,0.736 v 4.098 c 0,1.261 -0.574,1.999 -1.753,1.999 -1.066,0 -1.804,-0.753 -1.804,-1.918 V -6.54 C 1.376,-6.998 1.082,-7.276 0.689,-7.276 0.295,-7.276 0,-6.998 0,-6.54 Z"
             style="fill:#515457;fill-opacity:1;fill-rule:nonzero;stroke:none"
             id="path232"
             inkscape:connector-curvature="0" />
        </g>
        <g
           id="g234"
           transform="matrix(0.35277777,0,0,-0.35277777,65.78186,172.10581)">
          <path
             d="m 0,0 c -0.147,0.475 -0.246,1.114 -0.246,1.999 0,0.868 0.099,1.509 0.246,1.983 0.442,1.362 1.59,2.115 3.097,2.115 1.181,0 2.017,-0.508 2.509,-1.148 C 5.736,4.77 5.803,4.622 5.803,4.442 5.803,4.097 5.539,3.836 5.196,3.836 4.949,3.836 4.769,3.966 4.59,4.163 4.229,4.556 3.802,4.818 3.097,4.818 2.245,4.818 1.606,4.409 1.343,3.589 1.212,3.179 1.164,2.688 1.164,1.999 c 0,-0.704 0.048,-1.195 0.179,-1.606 0.263,-0.819 0.902,-1.228 1.754,-1.228 0.705,0 1.132,0.261 1.493,0.655 0.179,0.196 0.359,0.327 0.606,0.327 0.343,0 0.607,-0.262 0.607,-0.606 0,-0.18 -0.067,-0.328 -0.197,-0.508 C 5.114,-1.606 4.278,-2.113 3.097,-2.113 1.59,-2.113 0.442,-1.361 0,0"
             style="fill:#515457;fill-opacity:1;fill-rule:nonzero;stroke:none"
             id="path236"
             inkscape:connector-curvature="0" />
        </g>
        <g
           id="g238"
           transform="matrix(0.35277777,0,0,-0.35277777,68.395063,170.24971)">
          <path
             d="M 0,0 C 0,0.459 0.295,0.737 0.689,0.737 1.082,0.737 1.377,0.459 1.377,0 V -6.54 C 1.377,-6.998 1.082,-7.276 0.689,-7.276 0.295,-7.276 0,-6.998 0,-6.54 Z m -0.213,3.129 c 0,0.509 0.41,0.903 0.902,0.903 0.491,0 0.901,-0.394 0.901,-0.903 0,-0.491 -0.41,-0.9 -0.901,-0.9 -0.492,0 -0.902,0.409 -0.902,0.9"
             style="fill:#515457;fill-opacity:1;fill-rule:nonzero;stroke:none"
             id="path240"
             inkscape:connector-curvature="0" />
        </g>
        <g
           id="g242"
           transform="matrix(0.35277777,0,0,-0.35277777,71.181866,171.89178)">
          <path
             d="m 0,0 v 0.868 c 0,0.066 -0.033,0.098 -0.098,0.098 h -1.574 c -1.344,0 -1.95,-0.393 -1.95,-1.278 0,-0.819 0.59,-1.229 1.639,-1.229 C -0.771,-1.541 0,-0.967 0,0 Z m 1.868,-1.968 c 0,-0.375 -0.295,-0.654 -0.704,-0.654 -0.246,0 -0.443,0.114 -0.607,0.343 L 0.245,-1.786 H 0.229 C -0.295,-2.377 -1.033,-2.72 -2.18,-2.72 c -1.754,0 -2.771,0.868 -2.771,2.36 0,1.622 1.115,2.425 3.066,2.425 h 1.787 C -0.033,2.065 0,2.096 0,2.163 v 0.376 c 0,1.099 -0.508,1.722 -1.885,1.722 -0.606,0 -1.229,-0.197 -1.606,-0.394 -0.131,-0.065 -0.279,-0.114 -0.393,-0.114 -0.362,0 -0.591,0.229 -0.591,0.59 0,0.213 0.098,0.426 0.328,0.557 0.492,0.328 1.312,0.591 2.394,0.591 2.097,0 3.08,-1.001 3.08,-2.934 v -2.819 c 0,-0.41 0.033,-0.574 0.148,-0.803 l 0.279,-0.509 c 0.064,-0.114 0.114,-0.262 0.114,-0.394"
             style="fill:#515457;fill-opacity:1;fill-rule:nonzero;stroke:none"
             id="path244"
             inkscape:connector-curvature="0" />
        </g>
      </g>
    </g>
  </g>
</svg>
